<?xml version="1.0" encoding="UTF-8"?>
<svg xmlns="http://www.w3.org/2000/svg" xmlns:xlink="http://www.w3.org/1999/xlink" style="display: none;">
  <symbol id="svg-symbol-55" viewBox="0 0 16 16">
    <path d="M8 0a8.2 8.2 0 0 1 .701.031C9.444.095 9.99.645 10.16 1.29l.288 1.107c.018.066.079.158.212.224.231.114.454.243.668.386.123.082.233.09.299.071l1.103-.303c.644-.176 1.392.021 1.82.63.27.385.506.792.704 1.218.315.675.111 1.422-.364 1.891l-.814.806c-.049.048-.098.147-.088.294.016.257.016.515 0 .772-.01.147.038.246.088.294l.814.806c.475.469.679 1.216.364 1.891a7.977 7.977 0 0 1-.704 1.217c-.428.61-1.176.807-1.82.63l-1.102-.302c-.067-.019-.177-.011-.3.071a5.909 5.909 0 0 1-.668.386c-.133.066-.194.158-.211.224l-.29 1.106c-.168.646-.715 1.196-1.458 1.26a8.006 8.006 0 0 1-1.402 0c-.743-.064-1.289-.614-1.458-1.26l-.289-1.106c-.018-.066-.079-.158-.212-.224a5.738 5.738 0 0 1-.668-.386c-.123-.082-.233-.09-.299-.071l-1.103.303c-.644.176-1.392-.021-1.82-.63a8.12 8.12 0 0 1-.704-1.218c-.315-.675-.111-1.422.363-1.891l.815-.806c.05-.048.098-.147.088-.294a6.214 6.214 0 0 1 0-.772c.01-.147-.038-.246-.088-.294l-.815-.806C.635 6.045.431 5.298.746 4.623a7.92 7.92 0 0 1 .704-1.217c.428-.61 1.176-.807 1.82-.63l1.102.302c.067.019.177.011.3-.071.214-.143.437-.272.668-.386.133-.066.194-.158.211-.224l.29-1.106C6.009.645 6.556.095 7.299.03 7.53.01 7.764 0 8 0Zm-.571 1.525c-.036.003-.108.036-.137.146l-.289 1.105c-.147.561-.549.967-.998 1.189-.173.086-.34.183-.5.29-.417.278-.97.423-1.529.27l-1.103-.303c-.109-.03-.175.016-.195.045-.22.312-.412.644-.573.99-.014.031-.021.11.059.19l.815.806c.411.406.562.957.53 1.456a4.709 4.709 0 0 0 0 .582c.032.499-.119 1.05-.53 1.456l-.815.806c-.081.08-.073.159-.059.19.162.346.353.677.573.989.02.03.085.076.195.046l1.102-.303c.56-.153 1.113-.008 1.53.27.161.107.328.204.501.29.447.222.85.629.997 1.189l.289 1.105c.029.109.101.143.137.146a6.6 6.6 0 0 0 1.142 0c.036-.003.108-.036.137-.146l.289-1.105c.147-.561.549-.967.998-1.189.173-.086.34-.183.5-.29.417-.278.97-.423 1.529-.27l1.103.303c.109.029.175-.016.195-.045.22-.313.411-.644.573-.99.014-.031.021-.11-.059-.19l-.815-.806c-.411-.406-.562-.957-.53-1.456a4.709 4.709 0 0 0 0-.582c-.032-.499.119-1.05.53-1.456l.815-.806c.081-.08.073-.159.059-.19a6.464 6.464 0 0 0-.573-.989c-.02-.03-.085-.076-.195-.046l-1.102.303c-.56.153-1.113.008-1.53-.27a4.44 4.44 0 0 0-.501-.29c-.447-.222-.85-.629-.997-1.189l-.289-1.105c-.029-.11-.101-.143-.137-.146a6.6 6.6 0 0 0-1.142 0ZM11 8a3 3 0 1 1-6 0 3 3 0 0 1 6 0ZM9.5 8a1.5 1.5 0 1 0-3.001.001A1.5 1.5 0 0 0 9.5 8Z" class="inline fill-[#59636e] caret-[#59636e] [color-scheme:light]"></path>
  </symbol>
  <symbol id="svg-symbol-95" viewBox="0 0 103 24">
    <path d="M36.472 3.088c4.225 0 6.777 1.805 7.591 4.841l-3.784.902c-.462-1.65-1.783-2.552-3.807-2.552-3.015 0-4.643 1.98-4.643 5.743s1.584 5.787 4.555 5.787c2.502 0 4.079-1.406 4.323-3.829h-4.631v-3.168h8.45v2.002c0 5.26-3.059 8.186-8.208 8.186C31.213 21 28 17.501 28 12.022c0-5.48 3.279-8.934 8.472-8.934M79.62 15.741c0 1.518.682 2.355 1.98 2.355 1.497 0 2.64-1.387 2.64-3.28V8.304h3.5V20.67h-3.5v-2.09c-.66 1.342-2.244 2.31-3.938 2.31-2.707 0-4.181-1.496-4.181-4.225V8.303h3.499z" class="inline fill-[#1f2328] caret-[#1f2328] [color-scheme:light]"></path><path fill-rule="evenodd" d="M93.063 10.57C93.775 9.073 95.38 8.017 97 8.017c3.375 0 5.158 2.333 5.039 6.448.119 4.07-1.73 6.425-5.039 6.425-1.686 0-3.226-.968-3.96-2.355v2.135h-3.477V3.418h3.499zm2.706.374c-1.444 0-2.588 1.408-2.707 3.345v.198c.119 2.002 1.263 3.476 2.707 3.476 1.813 0 2.803-1.342 2.685-3.498.118-2.179-.872-3.521-2.685-3.521" class="inline fill-[#1f2328] [fill-rule:evenodd] caret-[#1f2328] [color-scheme:light]"></path><path d="M49.323 20.67h-3.477V8.303h3.477zm7.004-12.367h2.575v2.905h-2.575v5.611c0 .682.308.946.99.946h1.585v2.905h-2.839c-2.31 0-3.212-.99-3.212-3.08v-6.382H50.65V8.303h2.2V5.84l3.477-.814zm7.783-4.885v6.998h6.558V3.418h3.74V20.67h-3.74v-6.91H64.11v6.91h-3.74V3.418zM47.584 3c1.167 0 2.069.902 2.069 2.069a2.04 2.04 0 0 1-2.069 2.068 2.04 2.04 0 0 1-2.068-2.068c0-1.167.902-2.069 2.068-2.069M10.226 17.284c-2.965-.36-5.054-2.493-5.054-5.256 0-1.123.404-2.336 1.078-3.144-.292-.741-.247-2.314.09-2.965.898-.112 2.111.36 2.83 1.01.853-.269 1.752-.404 2.853-.404 1.1 0 1.999.135 2.807.382.696-.629 1.932-1.1 2.83-.988.315.606.36 2.179.067 2.942.72.854 1.101 2 1.101 3.167 0 2.763-2.089 4.852-5.098 5.234.763.494 1.28 1.572 1.28 2.807v2.336c0 .674.561 1.056 1.235.786 4.066-1.55 7.255-5.615 7.255-10.646C23.5 6.188 18.334 1 11.978 1 5.62 1 .5 6.188.5 12.545c0 4.986 3.167 9.12 7.435 10.669.606.225 1.19-.18 1.19-.786V20.63a2.9 2.9 0 0 1-1.078.224c-1.483 0-2.359-.808-2.987-2.313-.247-.607-.517-.966-1.034-1.033-.27-.023-.359-.135-.359-.27 0-.27.45-.471.898-.471.652 0 1.213.404 1.797 1.235.45.651.921.943 1.483.943.561 0 .92-.202 1.437-.719.382-.381.674-.718.944-.943" class="inline fill-[#1f2328] caret-[#1f2328] [color-scheme:light]"></path>
  </symbol>
</svg>